<svg data-logo="logo" xmlns="http://www.w3.org/2000/svg" viewBox="0 0 398 64">
        <g style="opacity: 1;" id="logogram" transform="translate(0, 12) rotate(0)"><path d="M21.3474 0.349945L46.7544 25.7266V39.3499H34.8978V30.624L16.4444 12.1924H12.611V39.3499H0.754395V0.349945H21.3474ZM34.8978 13.8842V0.349945H46.7544V13.8842H34.8978Z" fill="#E00000"></path></g>
        <g style="opacity: 1;" id="logotype" transform="translate(52, 10)"><path fill="#62a1f3" d="M18.13 22L9.38 22L9.38 0.12L18.13 0.12L18.13 4.50L22.50 4.50L22.50 8.87L26.88 8.87L26.88 0.12L35.63 0.12L35.63 22L26.88 22L26.88 17.63L22.50 17.63L22.50 13.25L18.13 13.25L18.13 22ZM58.38 22L40.88 22L40.88 0.12L58.38 0.12L58.38 4.50L49.63 4.50L49.63 8.87L58.38 8.87L58.38 13.25L49.63 13.25L49.63 17.63L58.38 17.63L58.38 22ZM72.38 22L63.63 22L63.63 17.63L68 17.63L68 13.25L72.38 13.25L72.38 8.87L68 8.87L68 4.50L63.63 4.50L63.63 0.12L72.38 0.12L72.38 4.50L81.13 4.50L81.13 0.12L89.88 0.12L89.88 4.50L85.50 4.50L85.50 8.87L81.13 8.87L81.13 13.25L85.50 13.25L85.50 17.63L89.88 17.63L89.88 22L81.13 22L81.13 17.63L72.38 17.63L72.38 22ZM108.25 22L99.50 22L99.50 4.50L95.13 4.50L95.13 0.12L112.63 0.12L112.63 4.50L108.25 4.50L108.25 22ZM140.63 22L131.88 22L131.88 0.12L140.63 0.12L140.63 22ZM154.63 22L145.88 22L145.88 0.12L154.63 0.12L154.63 4.50L159 4.50L159 8.87L163.38 8.87L163.38 0.12L172.13 0.12L172.13 22L163.38 22L163.38 17.63L159 17.63L159 13.25L154.63 13.25L154.63 22ZM190.50 22L181.75 22L181.75 4.50L177.38 4.50L177.38 0.12L194.88 0.12L194.88 4.50L190.50 4.50L190.50 22ZM217.63 22L200.13 22L200.13 0.12L217.63 0.12L217.63 4.50L208.88 4.50L208.88 8.87L217.63 8.87L217.63 13.25L208.88 13.25L208.88 17.63L217.63 17.63L217.63 22ZM231.63 22L222.88 22L222.88 0.12L240.38 0.12L240.38 4.50L244.75 4.50L244.75 8.87L240.38 8.87L240.38 17.63L244.75 17.63L244.75 22L236 22L236 17.63L231.63 17.63L231.63 22ZM231.63 4.50L231.63 8.87L236 8.87L236 4.50L231.63 4.50ZM267.50 22L258.75 22L258.75 17.63L254.38 17.63L254.38 8.87L250 8.87L250 0.12L258.75 0.12L258.75 8.87L267.50 8.87L267.50 0.12L276.25 0.12L276.25 8.87L271.88 8.87L271.88 17.63L267.50 17.63L267.50 22ZM290.25 22L281.50 22L281.50 0.12L290.25 0.12L290.25 22ZM313 22L295.50 22L295.50 0.12L313 0.12L313 4.50L304.25 4.50L304.25 8.87L313 8.87L313 13.25L304.25 13.25L304.25 17.63L313 17.63L313 22ZM340.13 22L322.63 22L322.63 17.63L318.25 17.63L318.25 0.12L327 0.12L327 4.50L335.75 4.50L335.75 0.12L344.50 0.12L344.50 17.63L340.13 17.63L340.13 22Z"></path></g>
        
      </svg>